# xmcd
#
# Track frame offsets: 
#        150
#        24186
#        49978
#        65412
#        88585
#        110814
#        131864
#        157633
#        179879
#        213471
#
# Disc length: 3214 seconds
#
# Revision: 2
# Processed by: cddbd v1.5.2PL0 Copyright (c) Steve Scherf et al.
# Submitted via: ExactAudioCopy v0.99pb5
#
DISCID=8d0c8c0a
DTITLE=Willie Nelson and Wynton Marsalis - Two Men with the Blues
DYEAR=2008
DGENRE=Blues
TTITLE0=Bright Lights Big City
TTITLE1=Night Life
TTITLE2=Caldonia
TTITLE3=Stardust
TTITLE4=Basin Street Blues
TTITLE5=Georgia On My Mind
TTITLE6=Rainy Day Blues
TTITLE7=My Bucket's Got A Hole In It
TTITLE8=Ain't Nobody's Business
TTITLE9=That's All
EXTD=Willie Nelson and Wynton Marsalis - Two Men with the Blues\n\n(2008
EXTD=]\n\nWILLIE NELSON - vocals, guitar\nWYNTON MARSALIS - vocals, tr
EXTD=umpet\n\nwith:\n\nWALTER BLANDING - saxophone\nMICKEY RAPHAEL - h
EXTD=armonica\nDAN NIMMER - piano\nCARLOS HENRIQUEZ - bass\nALI JACKSO
EXTD=N - drums\n\nWillie Nelson wishes to thank:\nBruce Lundvall\nZach
EXTD=Hochkeppel\nMeg Harkins\nJR Rich\nCem Kurosman\nPerry Greenfield
EXTD=\nEveryone at Blue Note Records\nThe folks at Jazz at Lincoln Cen
EXTD=ter\n\nWynton Marsalis and Jazz at Lincoln Center wish to thank:\n
EXTD=Genevieve Stewart\nMeghan Thornton\nEmilio Sosa\nAshley Schiff\nR
EXTD=andy Ezratty\nCat Henry\nErnie Gregory\nVaughn Oliver\nGeoff Burk
EXTD=e\n\nRecorded live on January 12 and 13, 2007 in The Allen Room, 
EXTD=Frederick P. Rose\nHall, Home of Jazz at Lincoln Center, New York
EXTD=, NY\n\nRecorded by John Harris and Rob Macomber, Effanel Music/X
EXTD=M Productions\nAssistant engineers: Jeff Rothman and Hardi Kamsani\n
EXTD=\nMixed by Delfeayo Marsalis and Jeff Jones "The Jedi Master"\nat
EXTD=Pilot Recording Studios, New York, NY\nAssistant engineer: Justi
EXTD=n Colletti\n\nRe-mix and additional editing by Jeff Jones "The Je
EXTD=di Master"\nat World Alert Music, New York, NY\nAssistant enginee
EXTD=r: Norman G. Bullard\n\nMastered at Sterling Sound by Leon Zervos
EXTD=\n\nExecutive Producers: Mark Rothbaum and Jazz at Lincoln Center
EXTD=\nConcert producer: André Guess for Jazz at Lincoln Center\nProdu
EXTD=ction coordination: Naeemah Hicks, David Gibson, Mike Kemp for Ja
EXTD=zz at Lincoln Center\nMusic Copyist: Jonathan Kelly\nPersonal and
EXTD=financial management for Wynton Marsalis: The Management Ark/Edw
EXTD=ard C. \nArrendell II, President\nCarlos Henriquez plays a Shen P
EXTD=anormo bass with Pirastro Chorda Gut Strings\nAli Jackson uses Ya
EXTD=maha drums, sticks and brushes by Regal Tip, cymbals by Zildjian, a
EXTD=nd XL Spec \nProtechtor Cases\n\nwww.willienelson.com\nwww.wynton
EXTD=marsalis.org\nwww.willieandwynton.com\n\nA&R: Eli Wolf and Lorne Be
EXTD=hrman\nA&R administration: Keith Karwelies\nProduct management: P
EXTD=erry Greenfield\nCreative direction: Gordon H Jee\nArt direction 
EXTD=& design: Carla Leighton\nPhotography: Danny Clinch\n\n(P) (C) 20
EXTD=08 The Blue Note Label Group. Manufactured by The Blue Note Label
EXTD=Group, 150 \nFifth Avenue, New York, New York 10011.  All rights
EXTD=reserved.  Unauthorized reproduction is\na violation of applicab
EXTD=le laws.  Printed in USA.  www.bluenote.com\n\nBlue Note Records 
EXTD=UPC 5099950445424 \n\n-- last updated 04/18/2010 by Sargent C. (s
EXTD=argent(dot)cork(at)earthlink(dot)net) --
EXTT0=01  Bright Lights Big City.........5:20\n(Jimmy Reed]\nThe Seed 
EXTT0=of Reed Musc (BMI)
EXTT1=02  Night Life.....................5:44\n(Nelson-Breeland-Buskir
EXTT1=k]\nGlad Music Publishing and Recording LP/Pappy Daily Music LP/\n
EXTT1=Sony/ATV Tree Publishing (BMI)
EXTT2=03  Caldonia.......................3:15\n(Fleecie Moore]\nCherio
EXTT2=Corporation (BMI)
EXTT3=04  Stardust.......................5:18\n(H. Carmichael-M. Paris
EXTT3=h]\nEMI Music Mills Inc./Songs of Peer LTD (ASCAP)
EXTT4=05  Basin Street Blues.............4:16\n(Spencer Williams]\nEdw
EXTT4=in H. Morris and Co. Inc. (ASCAP)
EXTT5=06  Georgia On My Mind.............4:40\n(H. Carmichael-S. Gorre
EXTT5=ll]\nPeer Music III Ltd. (BMI)
EXTT6=07  Rainy Day Blues................5:43\n(Willie Nelson]\nGlad M
EXTT6=usic Publishing and Recording LP/Pappy Daily Music LP (BMI)
EXTT7=08  My Bucket's Got A Hole In It...4:56\n(Clarence Williams]\nUn
EXTT7=iversal Music Corporation (ASCAP)
EXTT8=09  Ain't Nobody's Business........7:27\n(Grainer Porter]\nGreat
EXTT8=Standard's Music admin. by The Songwriters Guild/Universal Musi
EXTT8=c Corporation (ASCAP)
EXTT9=10  That's All.....................6:08\n(Merle Travis]\nMerle's
EXTT9=Girls Music/Unichappell Music (BMI)
PLAYORDER=
